<svg xmlns="http://www.w3.org/2000/svg" viewBox="0 0 1000 620" fill="none">
  <!-- Generated by the track asset editor from metadata.json geometry. -->
  <path id="track-asphalt" d="M 140 220 C 135 263.33, 130 356.67, 140 400 C 150 443.33, 170 468.33, 200 480 C 230 491.67, 281.67 483.33, 320 470 C 358.33 456.67, 400 428.33, 430 400 C 460 371.67, 475 331.67, 500 300 C 525 268.33, 543.33 233.33, 580 210 C 616.67 186.67, 673.33 163.33, 720 160 C 766.67 156.67, 830 165, 860 190 C 890 215, 900 270, 900 310 C 900 350, 890 403.33, 860 430 C 830 456.67, 763.33 470, 720 470 C 676.67 470, 636.67 458.33, 600 430 C 563.33 401.67, 525 333.33, 500 300 C 475 266.67, 470 253.33, 450 230 C 430 206.67, 411.67 179.17, 380 160 C 348.33 140.83, 295 118.33, 260 115 C 225 111.67, 190 122.5, 170 140 C 150 157.5, 145 176.67, 140 220 Z" stroke="#39424f" stroke-width="24" stroke-linejoin="round" />
  <path id="racing-line" d="M 140 220 C 135 263.33, 130 356.67, 140 400 C 150 443.33, 170 468.33, 200 480 C 230 491.67, 281.67 483.33, 320 470 C 358.33 456.67, 400 428.33, 430 400 C 460 371.67, 475 331.67, 500 300 C 525 268.33, 543.33 233.33, 580 210 C 616.67 186.67, 673.33 163.33, 720 160 C 766.67 156.67, 830 165, 860 190 C 890 215, 900 270, 900 310 C 900 350, 890 403.33, 860 430 C 830 456.67, 763.33 470, 720 470 C 676.67 470, 636.67 458.33, 600 430 C 563.33 401.67, 525 333.33, 500 300 C 475 266.67, 470 253.33, 450 230 C 430 206.67, 411.67 179.17, 380 160 C 348.33 140.83, 295 118.33, 260 115 C 225 111.67, 190 122.5, 170 140 C 150 157.5, 145 176.67, 140 220 Z" stroke="#cbd5e1" stroke-width="3" stroke-linejoin="round" />
  <path id="pit-lane" d="M 196 186 C 199 199.17, 211 234.33, 214 265 C 217 295.67, 217.33 338.17, 214 370 C 210.67 401.83, 197.33 441.67, 194 456" stroke="#67e8f9" stroke-width="3" stroke-dasharray="7 5" />
</svg>
